<svg width="241" height="56" viewBox="0 0 241 56" fill="none" xmlns="http://www.w3.org/2000/svg">
<mask id="mask0_14_29" style="mask-type:luminance" maskUnits="userSpaceOnUse" x="7" y="7" width="42" height="42">
<path d="M11.3845 33.0348C10.0535 32.5557 8.71576 32.2096 7.39006 31.9814C7.79103 34.1377 8.53162 36.2678 9.64617 38.2929C12.9016 44.208 18.5795 47.9222 24.7509 48.8889C24.5263 42.4091 19.2977 35.8839 11.3845 33.0348ZM12.1382 26.4633C22.5843 25.5483 30.6244 17.3737 31.5936 7.43431C27.0426 6.62521 22.1971 7.31393 17.8372 9.73409C11.502 13.2508 7.69706 19.5814 7.11133 26.3172C8.74113 26.5542 10.4239 26.6134 12.1382 26.4633ZM27.9814 32.9764C27.7142 38.8114 29.5474 44.2537 32.8079 48.5696C34.6088 48.1379 36.383 47.463 38.0824 46.5197C48.1968 40.9052 51.8639 28.1189 46.2734 17.9609C45.0691 15.7726 43.5319 13.8868 41.7625 12.3277C33.967 15.9817 28.4038 23.7474 27.9814 32.9764Z" fill="white"/>
</mask>
<g mask="url(#mask0_14_29)">
<path d="M11.3845 33.0348C10.0535 32.5557 8.71576 32.2096 7.39006 31.9814C7.79103 34.1377 8.53162 36.2678 9.64617 38.2929C12.9016 44.208 18.5795 47.9222 24.7509 48.8889C24.5263 42.4091 19.2977 35.8839 11.3845 33.0348ZM12.1382 26.4633C22.5843 25.5483 30.6244 17.3737 31.5936 7.43431C27.0426 6.62521 22.1971 7.31393 17.8372 9.73409C11.502 13.2508 7.69706 19.5814 7.11133 26.3172C8.74113 26.5542 10.4239 26.6134 12.1382 26.4633ZM27.9814 32.9764C27.7142 38.8114 29.5474 44.2537 32.8079 48.5696C34.6088 48.1379 36.383 47.463 38.0824 46.5197C48.1968 40.9052 51.8639 28.1189 46.2734 17.9609C45.0691 15.7726 43.5319 13.8868 41.7625 12.3277C33.967 15.9817 28.4038 23.7474 27.9814 32.9764Z" fill="white"/>
</g>
<path d="M118.446 45.2457H124.501V10.2229H118.446V45.2457Z" fill="white"/>
<path d="M142.773 19.8194C139.759 19.8194 136.875 20.9581 135.013 23.9963V20.3518H129.562V45.2458H135.392V32.0599C135.392 31.0284 135.484 30.0413 135.666 29.3188C136.337 26.6337 138.248 25.0742 141.061 25.0742C143.968 25.0742 145.643 26.5308 146.182 29.4425C146.311 30.1387 146.374 31.1313 146.374 32.055V45.2458H152.205V30.5149C152.205 28.8618 152.04 27.3679 151.654 26.0926C150.39 21.862 147.011 19.8194 142.773 19.8194Z" fill="white"/>
<path d="M171.681 39.5438C171.049 39.6931 169.993 39.7486 169.311 39.7486H162.608V29.8737H169.818C170.465 29.8737 171.204 29.9387 171.726 30.0558C174.561 30.6852 175.647 32.9234 175.647 34.8041C175.647 37.2919 174.05 38.9856 171.681 39.5438ZM162.608 15.7207H167.985C169.211 15.7207 170.514 15.89 171.35 16.2762C172.809 16.9489 173.596 18.2065 173.596 20.0965C173.596 21.9957 172.758 23.2937 171.271 23.9625C170.527 24.2969 169.44 24.4738 168.184 24.4738H167.035H162.608V15.7207ZM176.224 26.5275C178.591 24.708 179.587 22.621 179.587 19.6395C179.587 15.1775 176.824 11.8312 172.613 10.6915C171.52 10.3967 169.745 10.2237 167.678 10.2237H156.618V45.2457H169.006C171.42 45.2457 173.038 45.0156 174.624 44.4559C178.774 42.9893 181.638 39.7632 181.638 35.0297C181.638 31.0774 179.76 28.2628 176.224 26.5275Z" fill="white"/>
<path d="M227.521 20.3515L221.294 38.1356L214.975 20.3515H208.658L218.536 45.2457H223.917L233.775 20.3515H227.521Z" fill="white"/>
<path d="M189.583 30.8405C190.001 27.258 192.903 24.9028 196.43 24.9028C200.135 24.9028 202.951 27.3574 203.366 30.8405H189.583ZM196.376 19.8197C189.297 19.8197 183.796 25.5219 183.796 32.9732C183.796 39.8511 189.213 45.7776 196.624 45.7776C202.038 45.7776 206.231 42.6598 208.373 37.6094H202.443C201.107 39.6089 199.317 40.6942 196.723 40.6942C192.859 40.6942 190.332 38.4192 189.565 34.9187H208.974C209.12 34.0906 209.161 33.3961 209.151 32.5545C209.088 25.8636 203.963 19.8197 196.376 19.8197Z" fill="white"/>
<path d="M103.082 39.7442H95.8761V29.6775C96.7896 29.639 97.6859 29.6184 98.5522 29.6288C105.105 29.7136 108.918 31.6228 108.918 35.0204C108.918 38.0781 106.187 39.7442 103.082 39.7442ZM95.8761 15.7206H101.015C102.189 15.7206 103.173 15.8544 103.847 16.0744C105.8 16.7114 106.864 18.1832 106.864 20.5567C106.864 22.754 105.759 24.198 104.005 24.8621C102.336 24.5781 100.469 24.4223 98.3865 24.4205C97.6055 24.4199 96.7463 24.4322 95.8761 24.4597V15.7206ZM63.4345 37.2911L71.2084 17.1496L75.7308 29.2255C71.0521 31.3731 66.8811 34.1289 63.4345 37.2911ZM109.44 26.5764C111.962 24.7297 112.855 21.968 112.855 19.6395C112.855 15.1774 110.092 11.8312 105.882 10.6911C104.789 10.3967 103.014 10.2237 100.946 10.2237H89.8861V25.0014C86.7986 25.4694 83.8122 26.2004 80.9613 27.1547L74.0577 10.2225H73.8819H68.614H68.5015L54.2217 45.2457H60.0481C65.0828 39.9175 71.0936 36.0941 77.3533 33.5577L81.7305 45.2457H88.3375L82.8074 31.6822C85.1745 31.0076 87.5453 30.506 89.8861 30.1645V45.2457L92.8926 45.2484L92.8916 45.2543H103.45C110.911 45.2543 114.914 40.8731 114.914 35.0317C114.914 31.4891 113.161 28.478 109.44 26.5764Z" fill="white"/>
</svg>
