<?xml version="1.0" standalone="no"?>
<!DOCTYPE svg PUBLIC "-//W3C//DTD SVG 20010904//EN"
 "http://www.w3.org/TR/2001/REC-SVG-20010904/DTD/svg10.dtd">
<svg version="1.0" xmlns="http://www.w3.org/2000/svg"
 width="256.000000pt" height="256.000000pt" viewBox="0 0 256.000000 256.000000"
 preserveAspectRatio="xMidYMid meet">
<metadata>
Created by potrace 1.11, written by Peter Selinger 2001-2013
</metadata>
<g transform="translate(0.000000,256.000000) scale(0.100000,-0.100000)"
fill="#000000" stroke="none">
<path d="M0 1280 l0 -1280 1280 0 1280 0 0 1280 0 1280 -1280 0 -1280 0 0
-1280z m870 498 c69 -21 140 -56 140 -70 0 -4 -7 -25 -16 -47 l-15 -39 -57 29
c-165 83 -380 74 -466 -21 -62 -69 -58 -174 8 -225 45 -34 82 -48 249 -94 204
-56 268 -91 315 -171 35 -60 38 -173 5 -235 -31 -58 -100 -119 -169 -146 -51
-20 -76 -23 -194 -23 -121 0 -143 3 -213 27 -80 28 -142 62 -166 91 -12 14
-11 22 4 56 10 22 19 40 21 40 1 0 25 -15 53 -34 84 -57 153 -78 272 -84 80
-3 119 0 162 12 173 50 193 245 32 317 -22 10 -106 36 -187 58 -205 56 -269
91 -316 171 -23 39 -27 56 -27 125 0 90 19 137 77 192 99 95 308 125 488 71z
m985 7 c213 -38 378 -192 420 -392 65 -304 -107 -576 -403 -638 -48 -11 -139
-15 -319 -15 l-253 0 0 530 0 530 238 0 c159 -1 263 -5 317 -15z"/>
<path d="M1410 1270 l0 -430 190 0 c104 0 213 5 242 11 126 27 245 116 293
221 101 220 16 480 -187 577 -88 41 -156 51 -360 51 l-178 0 0 -430z"/>
</g>
</svg>
